<?xml version="1.0" encoding="UTF-8" standalone="no"?>
<!DOCTYPE svg PUBLIC "-//W3C//DTD SVG 1.1//EN" "http://www.w3.org/Graphics/SVG/1.1/DTD/svg11.dtd">
<svg width="100%" height="100%" viewBox="0 0 3300 1348" version="1.1" xmlns="http://www.w3.org/2000/svg" xmlns:xlink="http://www.w3.org/1999/xlink" xml:space="preserve" xmlns:serif="http://www.serif.com/" style="fill-rule:evenodd;clip-rule:evenodd;stroke-linejoin:round;stroke-miterlimit:2;">
    <g transform="matrix(1,0,0,1,797.114,264.229)">
        <path d="M754.97,685.678L754.626,685.805C759.031,697.724 763.393,709.529 767.713,721.22C771.565,735.167 768.926,745.652 759.797,752.673C759.568,752.758 755.098,754.409 746.388,757.628C739.74,760.085 734.515,761.104 730.713,760.685C725.003,746.643 722.474,734.16 723.127,723.237C724.189,722.584 725.178,722.089 726.095,721.75C728.845,720.733 733.759,722.044 740.834,725.682C745.175,721.212 745.863,714.966 742.898,706.943C742.389,705.568 741.534,703.604 740.33,701.053C739.127,698.501 738.313,696.653 737.89,695.507C734.502,686.338 737.362,680.331 746.471,677.485L754.97,685.678ZM681.353,603.852C674.875,606.767 673.246,612.58 676.465,621.29L679.387,629.198C681.251,634.241 681.804,638.205 681.046,641.091C683.159,641.873 684.47,642.952 684.978,644.327C685.317,645.244 685.394,647.039 685.209,649.713C685.025,652.386 685.145,654.296 685.568,655.442C686.076,656.817 686.886,657.951 687.997,658.843C692.542,665.5 696.296,672.84 699.261,680.863C702.734,690.261 705.582,701.845 707.804,715.613C709.179,727.089 710.712,738.637 712.401,750.258L713.417,753.009C705.26,754.199 697.466,751.087 690.037,743.672C678.451,732.062 672.302,725.997 671.59,725.479C667.673,719.11 663.158,709.185 658.046,695.704C652.934,682.222 648.461,672.411 644.629,666.272C638.944,653.002 636.526,639.762 637.376,626.552C638.226,613.342 642.749,601.965 650.947,592.423C654.455,588.521 658.272,585.808 662.398,584.283C671.567,580.895 677.676,583.327 680.726,591.579C681.911,594.788 682.121,598.879 681.353,603.852ZM874.683,718.815C873.382,721.64 873.173,723.541 874.055,724.518C871.653,724.363 867.96,724.946 862.977,726.267C857.994,727.587 854.217,727.941 851.646,727.328C850.908,726.037 850.328,724.819 849.904,723.673C848.041,718.63 849.097,713.029 853.074,706.87C857.259,704.802 861.044,705.878 864.428,710.099C868.693,715.296 872.111,718.202 874.683,718.815ZM831.848,534.168C848.407,546.547 861.176,564.884 870.155,589.182C881.336,619.44 884.184,648.999 878.697,677.861C878.154,677.801 873.333,678.15 864.234,678.907C858.767,679.625 855.302,677.649 853.837,672.98C853.886,674.525 853.13,675.651 851.568,676.358C850.006,677.066 848.579,677.788 847.289,678.526C845.55,665.361 841.84,648.625 836.16,628.319C831.292,611.62 826.538,594.88 821.899,578.096C819.557,577.399 817.442,574.142 815.553,568.327C813.919,563.199 811.014,560.626 806.838,560.606L803.586,567.669L793.854,557.197C794.706,576.422 799.579,598.068 808.474,622.137C816.352,643.455 826.632,664.927 839.313,686.554C837.215,688.631 835.434,693.328 833.969,700.643C832.768,706.558 829.947,710.206 825.507,711.586C802.092,697.573 784.2,673.833 771.833,640.367C761.922,613.548 758.952,588.592 762.924,565.501C769.572,551.06 781.262,540.748 797.996,534.564C810.145,530.074 821.429,529.942 831.848,534.168ZM1627.11,676.27C1624.91,678.47 1624.06,680.18 1624.55,681.402C1622.35,680.425 1618.68,679.691 1613.55,679.203C1608.42,678.714 1604.75,677.736 1602.55,676.27C1602.31,674.804 1602.18,673.46 1602.18,672.238C1602.18,666.862 1605.12,661.974 1610.98,657.576C1615.62,657.087 1618.8,659.408 1620.51,664.54C1622.71,670.894 1624.91,674.804 1627.11,676.27ZM1085.7,638.148C1087.9,644.746 1089,650.977 1089,656.842C1089,663.685 1087.17,668.939 1083.5,672.605C1080.81,672.116 1078.61,669.489 1076.9,664.723C1075.19,659.958 1072.87,657.209 1069.94,656.476C1068.72,659.408 1067.37,662.219 1065.9,664.907C1064.44,668.084 1062.12,669.794 1058.94,670.039C1056.99,668.084 1056.01,665.273 1056.01,661.608L1056.01,651.711C1056.99,651.955 1057.96,652.077 1058.94,652.077C1062.36,652.077 1066.33,649.694 1070.85,644.929C1075.38,640.164 1079.22,637.781 1082.4,637.781C1083.38,637.781 1084.48,637.903 1085.7,638.148ZM1262.75,668.206C1259.82,664.785 1255.78,663.074 1250.65,663.074C1248.21,663.074 1244.79,663.502 1240.39,664.357C1235.99,665.212 1232.81,665.64 1230.86,665.64C1224.75,665.64 1221.08,662.096 1219.86,655.01C1208.62,663.807 1196.89,668.206 1184.67,668.206C1180.03,668.206 1175.63,667.473 1171.48,666.006C1158.03,650.611 1151.31,637.659 1151.31,627.151C1151.31,623.974 1151.68,620.675 1152.41,617.254C1152.9,592.328 1161.94,575.344 1179.54,566.302C1187.6,560.681 1197.38,557.871 1208.86,557.871C1210.82,557.871 1212.65,557.993 1214.36,558.237C1216.32,556.282 1219.37,555.305 1223.53,555.305L1233.42,555.305L1235.62,558.237C1235.87,557.993 1239.9,551.151 1247.72,537.71C1252.61,529.646 1257.74,523.903 1263.12,520.482L1263.12,571.067C1263.12,592.572 1262.14,609.8 1260.18,622.752C1261.89,623.485 1262.75,626.051 1262.75,630.45C1262.5,631.916 1262.38,633.627 1262.38,635.582C1262.38,637.781 1262.69,641.569 1263.3,646.945C1263.91,652.321 1264.21,656.354 1264.21,659.042C1264.21,662.707 1263.73,665.762 1262.75,668.206ZM1776.3,690.2C1772.64,690.2 1768.36,689.466 1763.47,688C1758.1,689.711 1755.41,686.656 1755.41,678.836C1755.41,677.37 1755.53,676.026 1755.77,674.804L1755.77,668.939C1755.77,666.74 1754.8,665.151 1752.84,664.174C1752.11,665.884 1751.01,666.74 1749.54,666.74C1748.81,666.74 1747.65,666.312 1746.06,665.457C1744.47,664.601 1743.19,664.296 1742.21,664.54C1738.06,664.785 1732.19,666.312 1724.62,669.122C1717.04,671.933 1710.93,673.338 1706.29,673.338C1703.84,673.338 1701.28,672.971 1698.59,672.238C1693.21,666.617 1689.91,658.064 1688.69,646.579C1688.69,637.292 1688.57,628.006 1688.33,618.72L1685.39,497.388C1689.42,495.731 1695.51,494.877 1703.66,494.825L1705.25,494.82C1713.4,494.768 1719.49,493.914 1723.52,492.256L1728.65,497.388C1726.69,514.494 1725.84,537.588 1726.08,566.668L1726.08,631.916C1727.79,633.627 1728.65,635.704 1728.65,638.148C1728.65,639.37 1728.34,641.264 1727.73,643.829C1727.12,646.395 1726.82,648.289 1726.82,649.511C1726.82,651.222 1727.3,652.566 1728.28,653.543C1730.48,654.032 1733.41,653.238 1737.08,651.161C1740.75,649.084 1743.31,648.045 1744.78,648.045C1746.49,648.045 1748.2,648.9 1749.91,650.611L1755.77,645.479L1755.77,590.861C1755.77,569.112 1754.8,551.517 1752.84,538.077L1752.48,502.52C1760.54,500.565 1767.75,499.588 1774.1,499.588C1780.46,499.588 1787.66,500.565 1795.73,502.52C1794.02,509.851 1793.16,517.916 1793.16,526.713C1793.16,533.067 1793.77,542.659 1795,555.488C1796.22,568.318 1796.83,578.032 1796.83,584.63C1796.83,590.006 1796.58,595.138 1796.1,600.025C1794.38,599.537 1792.43,600.392 1790.23,602.591C1796.1,604.546 1799.03,609.434 1799.03,617.254C1799.03,618.476 1798.91,619.82 1798.66,621.286L1795.73,623.852L1798.66,626.418L1798.3,626.418C1796.58,631.061 1795.73,638.514 1795.73,648.778L1795.73,657.942C1795.73,668.206 1794.75,675.659 1792.8,680.302C1789.91,686.797 1784.54,690.096 1776.68,690.197L1776.3,690.2ZM1650.94,488.224C1662.18,505.575 1667.8,527.202 1667.8,553.106C1667.8,585.363 1660.22,614.077 1645.07,639.247C1644.58,639.003 1639.94,637.659 1631.14,635.215C1625.77,633.993 1623.2,630.939 1623.44,626.051C1622.96,627.518 1621.86,628.312 1620.15,628.434C1618.43,628.556 1616.85,628.739 1615.38,628.984C1618.31,616.032 1620.63,599.048 1622.35,578.032C1623.57,560.681 1624.91,543.331 1626.38,525.98C1624.42,524.514 1623.57,520.726 1623.81,514.617C1624.06,509.24 1622.22,505.819 1618.31,504.353L1612.82,509.851L1607.32,496.655C1601.45,514.983 1598.52,536.977 1598.52,562.636C1598.52,585.363 1600.72,609.067 1605.12,633.749C1602.43,634.971 1599.13,638.759 1595.22,645.112C1592.04,650.244 1588.13,652.688 1583.49,652.444C1566.38,631.183 1557.83,602.714 1557.83,567.035C1557.83,538.443 1563.7,514.006 1575.43,493.723C1586.67,482.481 1601.21,476.861 1619.05,476.861C1632,476.861 1642.63,480.649 1650.94,488.224ZM1216.93,574C1213.51,577.91 1209.96,579.742 1206.3,579.498C1204.83,586.585 1203.49,593.549 1202.27,600.392C1200.8,608.945 1200.31,616.398 1200.8,622.752C1202.02,625.196 1203.31,627.762 1204.65,630.45C1205.99,633.138 1207.89,634.482 1210.33,634.482C1211.55,634.482 1212.9,634.116 1214.36,633.382L1216.93,574ZM1539.5,547.241C1537.79,550.417 1536.94,553.839 1536.94,557.504L1536.94,568.135C1536.45,571.067 1535.47,574 1534,576.932C1531.81,576.199 1529.97,575.832 1528.51,575.832C1526.8,575.832 1525.02,576.382 1523.19,577.482C1521.36,578.582 1519.95,579.131 1518.98,579.131C1517.51,579.131 1515.55,578.52 1513.11,577.299L1497.35,551.639C1497.59,558.971 1498.94,565.446 1501.38,571.067C1502.6,574 1503.82,576.932 1505.05,579.865C1495.03,581.086 1489.41,581.086 1488.18,579.865L1485.62,582.797L1480.12,574.733C1475.23,580.109 1473.77,588.295 1475.72,599.292C1478.16,611.267 1477.92,619.82 1474.99,624.952C1478.41,630.572 1482.69,633.382 1487.82,633.382C1490.02,633.382 1491.97,632.649 1493.68,631.183C1496.37,625.318 1499.06,619.453 1501.75,613.588C1505.66,606.501 1509.81,602.958 1514.21,602.958C1517.63,602.958 1521.54,604.913 1525.94,608.823C1531.32,611.022 1534,613.71 1534,616.887C1534,618.842 1532.6,621.958 1529.79,626.235C1526.98,630.511 1525.57,633.871 1525.57,636.315C1525.57,637.292 1525.69,638.148 1525.94,638.881C1522.27,641.325 1518.91,645.112 1515.86,650.244C1512.81,655.376 1508.96,658.797 1504.31,660.508C1500.16,664.174 1496.37,666.006 1492.95,666.006C1490.26,666.006 1486.35,663.746 1481.22,659.225C1476.09,654.704 1471.2,652.444 1466.56,652.444C1464.85,648.045 1460.33,643.035 1452.99,637.415C1445.66,631.794 1441.26,625.929 1439.8,619.82C1439.8,620.308 1439.8,618.353 1439.8,613.955C1439.8,611.511 1438.82,609.923 1436.87,609.189L1439.8,606.624C1436.13,606.379 1434.3,604.18 1434.3,600.025L1434.3,597.093C1434.54,595.871 1434.67,594.894 1434.67,594.16C1434.67,591.228 1433.81,589.151 1432.1,587.929L1432.1,575.099C1432.1,568.501 1431,563.736 1428.8,560.803C1431.98,545.408 1435.15,530.012 1438.33,514.617C1443.22,496.777 1449.57,487.858 1457.39,487.858C1458.62,487.858 1459.84,488.102 1461.06,488.591C1468.39,481.993 1477.07,478.694 1487.08,478.694C1498.08,478.694 1510.06,482.604 1523.01,490.424C1532.54,508.018 1538.04,526.957 1539.5,547.241ZM1091.72,553.755L1219.5,773.299L348.054,773.299L411.39,664.482L1019.22,429.2L1017.2,425.725L1011.48,415.893L1011.48,415.893L1017.2,425.725L1053.38,487.88C1051.65,488.45 1049.96,489.176 1048.31,490.057L1056.01,589.395C1060.65,589.395 1063.46,590.373 1064.44,592.328L1050.51,600.025C1052.46,603.447 1053.44,608.334 1053.44,614.688L1053.44,629.717C1056.13,630.206 1058.57,630.45 1060.77,630.45C1065.66,630.45 1070.43,628.862 1075.07,625.685C1079.71,622.508 1084.23,619.331 1088.63,616.154C1090.59,611.755 1091.57,606.379 1091.57,600.025C1091.57,593.916 1090.59,588.54 1088.63,583.897C1083.99,583.897 1081.18,583.041 1080.2,581.331L1086.07,576.199L1088.63,579.131C1088.63,578.907 1089.66,570.448 1091.72,553.755L1053.38,487.88C1059.31,485.917 1065.69,485.787 1072.5,487.491C1073.72,485.536 1075.8,484.559 1078.74,484.559L1085.7,484.559C1089.37,486.269 1091.2,488.591 1091.2,491.523C1091.2,492.745 1090.77,494.578 1089.91,497.022C1089.06,499.465 1088.63,501.176 1088.63,502.153C1088.63,505.086 1090.34,507.408 1093.76,509.118C1099.14,502.52 1104.64,495.8 1110.26,488.957C1117.59,481.382 1125.65,478.083 1134.45,479.06L1134.45,527.813C1119.55,525.613 1109.65,524.636 1104.76,524.88C1097.67,529.035 1093.52,537.099 1092.3,549.073L1091.72,553.755ZM217.089,537.776L216.727,537.83C218.615,550.397 220.486,562.842 222.338,575.167C223.272,589.607 218.556,599.335 208.19,604.353C207.948,604.389 203.236,605.097 194.053,606.477C187.045,607.53 181.722,607.465 178.084,606.282C175.349,591.372 175.412,578.636 178.273,568.074C179.445,567.651 180.514,567.366 181.481,567.221C184.381,566.785 188.925,569.068 195.113,574.069C200.272,570.575 202.216,564.599 200.945,556.141C200.727,554.691 200.288,552.595 199.629,549.852C198.97,547.109 198.549,545.134 198.368,543.926C196.915,534.259 200.937,528.959 210.435,528.026L217.089,537.776ZM161.654,442.688C154.719,444.224 151.941,449.584 153.321,458.767L154.574,467.104C155.373,472.421 155.108,476.415 153.78,479.085C155.689,480.281 156.753,481.604 156.971,483.054C157.116,484.021 156.827,485.794 156.102,488.374C155.378,490.954 155.107,492.848 155.288,494.056C155.506,495.506 156.068,496.781 156.975,497.88C160.07,505.323 162.254,513.273 163.525,521.732C165.014,531.64 165.446,543.56 164.821,557.492C163.834,569.008 162.985,580.627 162.275,592.348L162.711,595.248C154.482,594.755 147.484,590.123 141.718,581.352C132.736,567.627 127.949,560.439 127.357,559.786C124.818,552.755 122.416,542.119 120.153,527.879C117.889,513.639 115.506,503.124 113.003,496.334C110.135,482.185 110.46,468.73 113.979,455.968C117.498,443.207 124.241,432.989 134.208,425.313C138.436,422.206 142.725,420.326 147.075,419.672C156.742,418.22 162.229,421.843 163.536,430.543C164.044,433.926 163.417,437.975 161.654,442.688ZM940.333,690.255C943.108,690.011 945.642,689.465 947.934,688.618C952.29,687.009 957.533,683.573 963.665,678.311C969.797,673.049 974.769,669.583 978.581,667.914C979.413,667.346 980.722,667.188 982.509,667.439C984.295,667.691 985.532,667.69 986.22,667.436C987.595,666.927 988.33,665.744 988.425,663.885C990.597,664.124 992.065,665.276 992.827,667.339C994.098,670.777 994.776,672.611 994.86,672.84C995.055,674.071 995.406,675.374 995.914,676.749C998.625,684.084 1002.21,686.018 1006.65,682.55C1011.75,682.231 1016.01,681.436 1019.45,680.165C1027.02,677.37 1031.03,672.37 1031.49,665.164C1031.72,660.131 1030.05,652.801 1026.49,643.174L1023.32,634.578C1019.76,624.95 1017.98,617.663 1017.97,612.714L1018.32,612.587L1014.68,611.197L1016.54,607.774C1016.26,606.314 1015.91,605.011 1015.48,603.864C1012.77,596.529 1008.33,592.961 1002.15,593.161C1003.45,590.335 1004.99,588.855 1006.76,588.721C1005.52,583.967 1003.98,579.068 1002.11,574.026C999.825,567.836 995.885,558.937 990.291,547.326C984.698,535.715 980.8,526.93 978.598,520.97C975.548,512.718 973.555,504.857 972.618,497.388C964.376,498.349 957.275,499.931 951.316,502.134C945.356,504.336 938.933,507.752 932.046,512.381L944.715,545.606C951.208,557.536 958.224,573.701 965.763,594.102C977.707,626.422 984.018,643.499 984.695,645.333L980.973,652.18C978.775,651.168 976.874,650.959 975.27,651.552C973.894,652.06 971.847,653.924 969.129,657.143C966.411,660.362 963.935,662.123 961.703,662.427C960.447,661.849 959.523,660.758 958.93,659.153C958.506,658.007 958.136,656.125 957.82,653.506C957.504,650.888 957.134,649.005 956.71,647.859C955.863,645.567 954.341,643.915 952.143,642.903C950.957,639.694 943.418,619.293 929.526,581.701C919.216,554.508 912.014,532.55 907.918,515.827L901.325,512.792C898.125,515.741 892.71,518.653 885.08,521.528L883.59,522.084C875.961,524.959 870.546,527.871 867.345,530.82L912.154,643.613C915.602,652.239 918.936,660.907 922.155,669.617C927.202,679.806 933.152,686.631 940.006,690.093L940.333,690.255ZM368.411,580.275C365.003,577.327 360.761,576.235 355.686,576.997C353.269,577.361 349.95,578.292 345.727,579.791C341.504,581.291 338.426,582.186 336.493,582.476C330.451,583.384 326.3,580.425 324.038,573.599C314.229,583.969 303.283,590.062 291.2,591.878C286.609,592.568 282.15,592.497 277.824,591.664C262.244,578.437 253.674,566.627 252.112,556.236C251.64,553.094 251.513,549.778 251.729,546.285C248.508,521.563 254.926,503.424 270.981,491.868C278.121,485.111 287.37,480.88 298.728,479.173C300.661,478.882 302.492,478.731 304.22,478.718C305.862,476.494 308.738,475.074 312.846,474.456C319.129,473.512 322.392,473.022 322.633,472.985L325.244,475.558C325.449,475.28 328.42,467.915 334.156,453.461C337.79,444.76 342.012,438.318 346.82,434.136C347.038,435.586 349.544,452.261 354.338,484.16C357.533,505.426 359.127,522.608 359.119,535.707C360.919,536.178 362.146,538.588 362.8,542.938C362.776,544.424 362.91,546.134 363.2,548.067C363.527,550.242 364.392,553.943 365.795,559.168C367.198,564.394 368.099,568.336 368.499,570.994C369.044,574.619 369.014,577.713 368.411,580.275ZM747.436,628.28L747.78,628.153C747.446,632.184 744.299,635.301 738.339,637.504C737.422,637.842 736.047,638.351 734.213,639.028C732.295,639.477 730.992,639.828 730.304,640.082C725.261,641.946 721.932,644.218 720.318,646.899C718.275,643.485 712.891,635.966 704.165,624.34C697.374,615.126 692.622,606.852 689.912,599.517C688.811,596.537 687.896,593.358 687.169,589.979C688.554,587.383 690.164,585.746 691.997,585.068C693.831,584.391 697.111,584.807 701.838,586.317C706.564,587.827 710.103,587.887 712.455,586.496C724.928,592.048 736.588,605.976 747.436,628.28ZM1913.76,607.723L1914.13,607.723C1914.37,610.411 1914.5,613.099 1914.5,615.788C1914.5,628.984 1910.59,642.424 1902.77,656.109C1901.79,655.621 1900.81,655.376 1899.83,655.376C1898.12,655.376 1896.66,656.476 1895.43,658.675C1893.72,661.608 1892.62,663.318 1892.13,663.807C1883.83,668.695 1875.03,670.527 1865.74,669.306C1864.28,670.039 1862.69,670.405 1860.98,670.405C1858.53,670.405 1854.56,668.878 1849.06,665.823C1843.57,662.768 1839.11,661.486 1835.68,661.974C1834.71,659.286 1830.43,652.932 1822.86,642.913C1817.97,636.071 1815.89,628.984 1816.62,621.653C1820.04,621.408 1824.81,619.698 1830.92,616.521C1837.03,613.344 1841.92,611.755 1845.58,611.755C1847.54,611.755 1849.61,612.122 1851.81,612.855C1851.57,614.566 1851.45,616.154 1851.45,617.62C1851.45,624.463 1855.11,632.649 1862.44,642.18C1863.18,641.691 1866.48,640.714 1872.34,639.247C1876.5,638.026 1878.69,635.582 1878.94,631.916C1879.92,615.299 1876.25,605.402 1867.94,602.225L1862.81,596.726C1862.08,598.681 1860.98,599.659 1859.51,599.659C1858.78,599.659 1857.56,599.17 1855.85,598.193C1854.13,597.215 1852.79,596.726 1851.81,596.726C1864.52,586.218 1870.87,579.62 1870.87,576.932C1870.87,575.71 1869.77,575.099 1867.58,575.099C1865.86,575.099 1861.53,575.955 1854.56,577.665C1847.6,579.376 1842.89,580.231 1840.45,580.231C1837.76,580.231 1836.17,579.62 1835.68,578.398C1826.64,569.845 1822.12,556.16 1822.12,537.343C1822.12,528.79 1823.1,520.115 1825.05,511.318C1828.96,502.276 1838.74,494.089 1854.38,486.758C1862.44,487.735 1874.17,490.301 1889.57,494.456C1900.81,505.697 1906.43,517.916 1906.43,531.112C1906.43,534.044 1906.19,537.099 1905.7,540.276L1881.5,543.208C1881.02,542.475 1878.82,536.122 1874.91,524.147C1872.46,516.572 1868.43,512.173 1862.81,510.951C1858.17,516.572 1855.85,522.925 1855.85,530.012C1855.85,535.144 1857.19,540.398 1859.88,545.774C1866.23,549.929 1869.77,552.372 1870.51,553.106C1873.68,556.282 1875.39,560.07 1875.64,564.469C1878.33,569.601 1885.9,575.955 1898.37,583.53C1908.39,589.639 1913.52,597.704 1913.76,607.723ZM309.099,493.924C306.297,498.299 303.066,500.638 299.404,500.941C299.008,508.167 298.713,515.254 298.522,522.202C298.343,530.878 298.967,538.321 300.395,544.532C301.966,546.767 303.617,549.114 305.345,551.572C307.074,554.031 309.146,555.079 311.563,554.715C312.771,554.534 314.046,553.972 315.387,553.029L309.099,493.924ZM1491.12,504.353L1488.55,507.285C1486.84,507.53 1484.88,506.552 1482.69,504.353L1482.69,512.784C1478.78,516.694 1476.94,522.925 1477.19,531.478C1477.19,546.141 1477.19,553.228 1477.19,552.739L1488.18,553.106C1493.56,550.417 1496.25,545.652 1496.25,538.81C1496.25,535.388 1495.33,529.707 1493.5,521.765C1491.67,513.822 1490.87,508.018 1491.12,504.353ZM1249.55,523.414C1246.62,524.636 1244.42,527.691 1242.95,532.578C1241.49,537.466 1239.04,540.642 1235.62,542.109C1233.42,543.086 1231.47,543.575 1229.76,543.575C1226.09,543.575 1223.89,540.52 1223.16,534.411C1222.18,526.591 1221.2,522.07 1220.23,520.848C1220.72,514.494 1218.76,509.729 1214.36,506.552C1205.81,508.507 1198.6,518.527 1192.74,536.61L1190.17,533.678C1182.84,535.633 1177.1,536.61 1172.94,536.61C1168.3,536.61 1163.41,535.633 1158.28,533.678C1159.99,519.748 1161.58,510.707 1163.04,506.552C1166.46,497.266 1172.7,491.157 1181.74,488.224C1189.31,487.002 1201.04,485.169 1216.93,482.726C1220.84,483.948 1225.36,485.78 1230.49,488.224C1230.98,487.735 1232.69,486.636 1235.62,484.925C1237.82,483.703 1238.92,482.359 1238.92,480.893C1238.92,479.915 1238.68,478.816 1238.19,477.594C1239.9,477.105 1241.86,477.96 1244.05,480.16L1241.49,482.726C1249.31,493.478 1253.22,502.398 1253.22,509.485C1253.22,514.128 1252,518.771 1249.55,523.414ZM759.947,466.414C755.983,464.271 751.605,464.12 746.814,465.96C744.533,466.836 741.493,468.462 737.693,470.837C733.893,473.213 731.081,474.751 729.256,475.452C723.553,477.643 718.861,475.649 715.179,469.471C707.839,481.714 698.466,490.026 687.06,494.407C682.726,496.072 678.357,496.965 673.953,497.085C655.886,487.532 644.969,477.851 641.201,468.042C640.062,465.076 639.221,461.865 638.679,458.408C630.198,434.964 632.55,415.867 645.733,401.118C651.246,392.98 659.363,386.852 670.085,382.734C671.91,382.033 673.665,381.49 675.35,381.104C676.474,378.579 678.975,376.571 682.853,375.081C688.784,372.803 691.864,371.62 692.092,371.533L695.197,373.482C695.337,373.166 696.648,365.333 699.129,349.982C700.8,340.702 703.532,333.501 707.324,328.379C707.85,329.748 713.896,345.489 725.461,375.602C733.171,395.677 738.436,412.11 741.255,424.902C743.114,424.973 744.833,427.062 746.41,431.168C746.707,432.624 747.207,434.265 747.908,436.09C748.696,438.143 750.339,441.57 752.837,446.369C755.335,451.169 757.066,454.824 758.03,457.333C759.344,460.755 759.983,463.782 759.947,466.414ZM1341.19,702.663C1339.97,702.663 1338.38,702.296 1336.43,701.563L1325.06,701.563C1319.2,701.807 1315.05,700.952 1312.6,698.997C1292.32,693.132 1281.44,681.646 1279.98,664.54C1280.95,656.231 1286.21,648.9 1295.74,642.547C1296.96,643.035 1298.92,642.302 1301.6,640.347C1301.36,637.17 1298.86,631.733 1294.09,624.035C1289.32,616.337 1286.94,610.167 1286.94,605.524C1286.94,601.614 1288.16,597.826 1290.61,594.16C1298.92,589.762 1303.07,583.164 1303.07,574.366C1303.07,569.234 1301.6,564.225 1298.67,559.337C1292.81,555.427 1289.87,548.096 1289.87,537.343C1289.87,534.411 1291.1,524.758 1293.54,508.385C1296.23,501.054 1300.87,494.456 1307.47,488.591C1314.07,482.726 1321.03,479.305 1328.36,478.327L1331.3,480.893C1333.01,481.137 1336.12,480.954 1340.64,480.343C1345.16,479.732 1348.52,479.427 1350.72,479.427C1359.03,479.427 1364.16,482.726 1366.12,489.324L1366.12,498.121C1365.88,501.543 1366.73,503.986 1368.68,505.453C1372.6,503.009 1374.43,498.366 1374.18,491.523C1373.94,483.459 1374.79,478.327 1376.75,476.128C1381.39,465.864 1393.12,457.677 1411.94,451.568C1413.89,454.012 1414.87,456.7 1414.87,459.632C1414.87,461.587 1414.26,464.642 1413.04,468.796C1411.82,472.951 1411.21,476.25 1411.21,478.694C1411.21,480.404 1411.45,482.115 1411.94,483.825L1403.51,483.825C1404.24,482.604 1403.39,480.771 1400.94,478.327C1397.28,481.748 1395.44,485.658 1395.44,490.057C1395.44,488.102 1396.3,493.234 1398.01,505.453C1398.5,509.607 1398.74,513.639 1398.74,517.549C1398.74,533.433 1394.1,548.218 1384.81,561.903C1376.02,569.234 1364.9,572.9 1351.46,572.9C1349.01,572.9 1346.69,572.778 1344.49,572.533C1344.98,566.913 1348.16,559.215 1354.02,549.44C1359.89,539.665 1362.82,531.845 1362.82,525.98C1362.82,522.803 1362.21,519.504 1360.99,516.083C1360.01,518.038 1357.32,519.015 1352.92,519.015C1352.92,514.617 1351.03,510.096 1347.24,505.453C1343.45,500.809 1341.68,496.289 1341.93,491.89C1340.46,492.379 1339.66,493.478 1339.54,495.189C1339.42,496.899 1339.24,498.61 1338.99,500.321L1333.86,494.822C1328.49,502.887 1325.8,512.662 1325.8,524.147C1325.8,529.768 1327.02,540.032 1329.46,554.938C1331.42,568.379 1332.03,578.887 1331.3,586.463C1329.59,585.974 1328.12,586.402 1326.9,587.746C1325.67,589.09 1324.45,590.373 1323.23,591.594C1323.23,601.125 1328.73,605.89 1339.73,605.89L1345.59,605.89C1354.14,605.89 1359.4,608.212 1361.35,612.855C1360.13,619.453 1358.91,626.173 1357.69,633.016C1355.98,640.836 1351.58,644.99 1344.49,645.479L1333.5,634.482C1331.78,635.46 1331.17,638.148 1331.66,642.547C1330.2,643.035 1328.36,642.18 1326.16,639.981C1325.92,642.424 1323.96,646.518 1320.3,652.26C1316.63,658.003 1314.8,662.219 1314.8,664.907C1314.8,668.572 1317.49,671.749 1322.87,674.437L1352.56,674.437L1352.56,680.669C1352.56,683.113 1353.53,684.823 1355.49,685.801C1358.91,684.579 1360.62,681.402 1360.62,676.27L1360.62,671.871C1360.38,669.916 1360.25,668.572 1360.25,667.839C1360.25,663.196 1362.33,660.875 1366.49,660.875C1367.95,660.875 1369.66,661.119 1371.62,661.608C1373.57,659.408 1374.55,655.987 1374.55,651.344L1374.55,639.981C1370.88,636.071 1369.05,631.427 1369.05,626.051C1369.05,622.974 1369.85,618.348 1371.46,612.174L1371.78,610.97C1373.38,604.796 1374.18,600.171 1374.18,597.093L1382.25,597.093C1387.13,601.003 1392.14,604.913 1397.28,608.823C1403.14,613.71 1407.05,618.537 1409.01,623.302C1410.96,628.067 1411.94,633.016 1411.94,638.148C1411.94,646.457 1409.25,656.842 1403.88,669.306C1395.32,679.08 1386.4,685.434 1377.12,688.367C1376.38,687.878 1375.53,687.634 1374.55,687.634C1373.08,687.634 1370.7,688.367 1367.4,689.833C1364.1,691.299 1361.48,692.032 1359.52,692.032C1358.3,692.032 1357.08,691.788 1355.86,691.299C1356.1,689.589 1355.12,687.634 1352.92,685.434C1350.72,686.412 1348.95,689.527 1347.61,694.782C1346.29,699.953 1344.19,702.58 1341.33,702.661L1341.19,702.663ZM333.844,439.052C331.125,440.696 329.404,444.043 328.681,449.095C327.957,454.146 326.013,457.65 322.847,459.609C320.817,460.902 318.957,461.676 317.265,461.93C313.64,462.475 311.011,459.781 309.378,453.849C307.25,446.261 305.611,441.935 304.463,440.872C304.002,434.516 301.361,430.095 296.539,427.607C288.371,430.811 282.731,441.791 279.619,460.545L276.645,458.026C269.686,461.049 264.152,462.869 260.044,463.487C255.453,464.177 250.474,463.936 245.109,462.766C244.73,448.737 244.957,439.559 245.79,435.233C247.793,425.542 253.047,418.574 261.553,414.33C268.863,411.996 280.19,408.441 295.535,403.664C299.583,404.291 304.326,405.431 309.764,407.085C310.175,406.529 311.703,405.188 314.349,403.06C316.342,401.525 317.23,400.033 317.012,398.583C316.867,397.616 316.462,396.565 315.797,395.429C317.416,394.692 319.476,395.247 321.978,397.095L319.822,400.014C329.153,409.485 334.345,417.724 335.398,424.732C336.088,429.324 335.57,434.097 333.844,439.052ZM720.527,299.355C721.631,302.154 730.811,325.723 748.07,370.059C758.847,398.119 767.178,422.537 773.064,443.313C775.765,444.893 777.817,447.508 779.218,451.158C780.533,454.58 780.715,457.782 779.767,460.765C783.889,461.275 789.101,460.19 795.401,457.509C804.754,453.916 809.887,451.945 810.799,451.594C816.767,446.685 817.736,438.983 813.705,428.489C813.004,426.664 811.909,423.812 810.42,419.934C808.702,416.144 807.493,413.336 806.792,411.511C804.514,405.58 803.516,400.596 803.799,396.561C803.676,395.561 802.852,394.438 801.326,393.191C799.8,391.945 798.906,390.979 798.643,390.295C798.205,389.154 798.539,387.979 799.645,386.769C797.838,386.154 796.672,385.162 796.146,383.793C795.708,382.653 795.564,380.745 795.715,378.069C795.865,375.394 795.634,373.257 795.02,371.661C794.582,370.52 793.916,369.467 793.022,368.501C788.795,365.675 786.074,359.783 784.858,350.825C783.643,341.868 780.878,335.862 776.564,332.807C777.374,326.737 774.991,319.34 769.416,310.618C763.841,301.895 761.546,294.727 762.531,289.113C758.603,284.339 752.077,283.704 742.951,287.209C739.302,288.611 731.827,292.659 720.527,299.355ZM683.396,394.899C681.604,399.775 678.954,402.757 675.444,403.843C676.616,410.984 677.859,417.968 679.171,424.793C680.869,433.304 683.085,440.437 685.82,446.193C687.836,448.036 689.954,449.971 692.173,451.999C694.391,454.026 696.641,454.602 698.922,453.726C700.063,453.288 701.186,452.464 702.292,451.254L683.396,394.899ZM450.406,435.25L447.869,435.631C445.549,434.991 444.303,432.46 444.133,428.038L441.233,428.473L442.432,436.448L445.331,436.012C444.824,437.571 442.191,438.956 437.43,440.165C436.945,435.296 434.79,428.762 430.963,420.565C427.136,412.367 424.914,406.214 424.297,402.106C423.679,397.998 423.944,394.004 425.091,390.125C417.988,397.123 413.87,405.897 412.737,416.446C411.953,422.742 412.518,432.665 414.431,446.216C416.344,459.768 416.908,469.691 416.124,475.987C418.651,481.291 420.514,487.93 421.712,495.905C422.911,503.88 423.47,514.175 423.388,526.79C428.113,525.339 431.563,526.921 433.739,531.536C437.318,538.906 439.246,542.694 439.524,542.899L443.782,536.699C448.688,536.456 451.466,533.567 452.117,528.033C453.19,518.728 453.829,513.937 454.035,513.659C451.001,509.914 449.652,503.815 449.988,495.362C450.324,486.91 448.818,480.588 445.469,476.396C444.658,469.351 443.744,462.446 442.727,455.679C442.313,446.351 444.873,439.541 450.406,435.25ZM221.387,480.046L221.75,479.991C220.603,483.87 216.888,486.282 210.605,487.226C209.638,487.371 208.188,487.589 206.255,487.88C204.285,487.929 202.938,488.008 202.213,488.117C196.896,488.916 193.175,490.463 191.049,492.76C189.743,489.002 186.001,480.545 179.823,467.387C175.047,456.985 172.078,447.917 170.916,440.184C170.443,437.042 170.195,433.743 170.17,430.288C172.054,428.027 173.963,426.752 175.896,426.462C177.83,426.171 180.957,427.246 185.277,429.685C189.598,432.125 193.051,432.903 195.636,432.021C206.719,439.993 215.303,456.001 221.387,480.046ZM411.39,664.482L411.435,664.405L441.084,613.464L442.679,613.224C442.719,612.815 442.536,612.296 442.131,611.666L471.958,560.42C472.906,560.107 473.86,559.788 474.819,559.465C480.111,557.681 484.406,555.429 487.704,552.71C491.573,542.366 494.063,531.641 495.172,520.536L540.159,443.244C537.521,435.648 535.057,428.87 532.768,422.908C530.49,416.977 528.141,411.203 525.723,405.588C523.881,404.201 522.39,403.727 521.249,404.165C520.337,404.515 519.262,405.975 518.023,408.545C516.785,411.115 515.438,412.548 513.982,412.846C513.105,410.565 510.826,407.186 507.144,402.711C503.462,398.235 501.182,394.856 500.306,392.575C498.817,388.697 499.143,384.776 501.285,380.812L510.076,380.184C511.833,374.535 510.653,366.35 506.535,355.628C505.795,353.703 504.551,350.764 502.803,346.811L502.09,345.203C500.342,341.25 499.098,338.311 498.359,336.386C491.612,318.82 494.056,307.803 505.691,303.335C510.025,301.67 515.666,300.681 522.614,300.369L531.063,299.873C532.658,302.663 534.069,305.655 535.296,308.849C536.96,313.183 538.878,319.711 541.05,328.432C543.221,337.153 545.052,343.452 546.541,347.331C548.907,353.49 551.852,358.773 555.376,363.178C557.201,362.477 559.781,360.504 563.117,357.26C566.452,354.016 569.032,352.043 570.857,351.342C574.051,350.116 577.173,350.749 580.225,353.242L580.356,353.584C581.562,359.236 582.701,364.144 583.774,368.307L573.605,385.779C573.028,385.899 572.632,386.001 572.419,386.082C570.594,386.783 569.331,387.923 568.628,389.502C565.418,388.641 563.4,388.499 562.575,389.078C560.591,391.41 560.125,393.946 561.177,396.683C561.592,397.765 562.611,399.498 564.233,401.882L540.159,443.244C543.78,453.668 547.729,465.63 552.005,479.132C561.518,510.033 567.518,529.063 570.006,536.223C572.866,536.172 575.036,537.563 576.518,540.397C577.999,543.232 579.265,546.018 580.317,548.755C582.58,549.195 584.624,549.064 586.449,548.363C588.73,547.487 591.244,545.343 593.992,541.932C596.739,538.521 598.797,536.552 600.166,536.027C602.675,535.063 605.649,536.67 609.085,540.847L610.429,537.19L619.505,545.484C619.277,545.572 621.146,544.985 625.111,543.723C627.393,542.847 628.525,541.365 628.509,539.277C626.829,529.451 622.418,525.124 615.277,526.296L619.834,516.693C622.588,517.729 624.044,519.133 624.201,520.906C628.673,525.733 633.769,526.393 639.491,522.887C638.93,520.746 638.3,518.763 637.599,516.938C636.109,513.06 631.069,505.048 622.477,492.903C620.846,492.744 619.46,492.884 618.319,493.322C616.722,493.935 615.177,495.707 613.685,498.636C612.192,501.565 610.647,503.337 609.05,503.95C608.366,504.213 607.638,504.362 606.866,504.396C598.59,492.391 592.963,482.511 589.984,474.755C587.531,468.367 585.92,461.787 585.151,455.014C583.924,451.82 581.685,447.183 578.433,441.102C575.181,435.021 572.986,430.498 571.847,427.532C570.883,425.023 570.17,421.632 569.707,417.36C569.244,413.087 568.662,410.038 567.961,408.213C567.435,406.845 566.283,404.866 564.503,402.277L564.233,401.882L573.605,385.779C574.885,385.512 577.061,385.149 580.131,384.691C583.588,384.149 586.211,383.141 588.001,381.668C586.729,378.758 585.32,374.304 583.774,368.307L783.778,24.68L1011.48,415.893L423.447,643.768L411.435,664.405L411.39,664.482L411.39,664.482ZM564.182,386.105L561.159,378.234L557.844,376.759L564.182,386.105ZM361.439,383.376L361.433,383.381C361.376,382.998 361.378,382.997 361.439,383.376ZM441.084,613.464L423.105,616.166C413.958,617.788 406.823,617.995 401.699,616.788C398.988,600.391 396.275,576.582 393.559,545.358C393.111,540.731 391.847,538.079 389.769,537.402L392.233,534.067C390.191,533.632 388.988,532.207 388.625,529.79C388.08,526.165 387.79,524.232 387.753,523.99L390.272,521.017C387.661,518.444 386.319,516.916 386.247,516.432C387.95,512.964 391.623,511.918 397.266,513.294C401.943,514.815 404.401,513.086 404.642,508.108C400.884,509.414 395.984,508.05 389.941,504.016C383.898,499.981 379.306,498.2 376.164,498.672C375.701,482.432 373.762,462.954 370.348,440.238C364.812,404.825 361.842,385.871 361.439,383.376C364.051,381.01 369.945,379.137 379.122,377.758C392.933,375.929 399.355,375.088 398.388,375.233L408.815,390.347L420.593,377.456L426.485,382.131C427.619,376.524 429.515,373.521 432.173,373.121C433.623,372.903 437.001,374.002 442.306,376.417C446.85,378.7 450.379,379.158 452.892,377.792C465.679,387.238 473.398,400.781 476.049,418.423C476.557,421.806 476.824,425.225 476.849,428.681C485.626,442.684 490.577,453.431 491.703,460.922C492.175,464.064 492.146,467.157 491.615,470.202L491.198,469.894C492.371,474.413 493.339,479.21 494.102,484.285C495.981,496.788 496.338,508.872 495.172,520.536L471.958,560.42C467.673,561.837 463.498,563.154 459.432,564.372L453.649,560.422L451.185,563.758C447.861,563.022 445.094,560.225 442.881,555.368C438.988,547.551 437.084,544.748 437.169,546.96C437.254,549.171 437.395,556.687 437.592,569.507C437.595,579.392 438.05,587.355 438.958,593.396C439.576,597.504 440.416,601.455 441.481,605.249L438.962,608.223C440.487,609.603 441.543,610.751 442.131,611.666L441.084,613.464ZM695.715,335.979C693.415,338.172 692.457,341.812 692.841,346.9C693.224,351.988 692.082,355.83 689.414,358.425C687.711,360.126 686.062,361.284 684.465,361.897C681.043,363.211 677.894,361.148 675.02,355.708C671.303,348.758 668.77,344.888 667.419,344.098C665.598,337.992 662.064,334.244 656.819,332.856C649.535,337.747 646.398,349.685 647.406,368.669L643.96,366.852C637.817,371.305 632.806,374.277 628.928,375.766C624.594,377.431 619.681,378.271 614.189,378.286C610.792,364.669 609.033,355.659 608.912,351.255C608.776,341.36 612.403,333.422 619.792,327.443C626.426,323.586 636.719,317.67 650.671,309.693C654.759,309.432 659.637,309.522 665.304,309.963C665.585,309.332 666.787,307.692 668.912,305.044C670.527,303.114 671.071,301.465 670.546,300.097C670.195,299.184 669.573,298.245 668.678,297.28C670.1,296.21 672.232,296.308 675.074,297.572L673.598,300.888C684.753,308.122 691.601,315.046 694.142,321.662C695.807,325.996 696.331,330.769 695.715,335.979ZM863.853,342.13L863.776,342.112C863.856,342.256 863.882,342.261 863.853,342.13ZM863.853,342.13L872.802,344.143L867.245,352.167L891.851,409.077C892.36,408.358 893.071,407.823 893.984,407.473C895.124,407.035 896.712,407.079 898.747,407.607C900.782,408.134 902.142,408.266 902.826,408.004C903.967,407.565 904.757,406.215 905.197,403.952L907.828,405.69C909.162,404.392 912.812,402.99 918.778,401.484C924.287,400.153 927.903,397.98 929.624,394.963L909.099,333.344C906.31,331.535 903.864,327.893 901.761,322.418L897.898,311.337C892.165,302.544 886.889,291.874 882.07,279.327C877.601,267.693 873.177,256.172 868.796,244.766C865.587,240.501 860.877,238.121 854.667,237.627C849.35,238.098 843.99,238.455 838.586,238.698C829.213,247.01 822.98,256.341 819.887,266.691C817.624,266.252 816.081,264.619 815.258,261.794C813.681,257.688 812.805,255.407 812.629,254.95C809.402,252.001 805.166,251.534 799.919,253.55C796.04,255.039 792.328,257.643 788.783,261.361L806.875,292.108C806.822,292.652 807.319,297.696 808.367,307.241C809.189,313.47 807.319,317.461 802.756,319.213C804.036,321.863 805.157,324.443 806.121,326.952C811.115,339.955 812.846,352.641 811.314,365.01C818.488,368.013 823.346,372.823 825.887,379.439C827.201,382.861 828.242,388.809 829.01,397.284C829.778,405.758 830.995,412.163 832.659,416.497C834.061,420.147 835.99,423.464 838.445,426.448C842.339,427.046 847.823,425.987 854.895,423.271C864.248,419.679 869.039,417.839 869.267,417.751C869.953,414.085 869.639,410.541 868.324,407.119C867.475,404.909 865.713,401.76 863.038,397.672L862.514,396.875C859.839,392.787 858.076,389.638 857.228,387.428C855.826,383.778 855.468,380.12 856.154,376.453L845.85,348.604C843.589,344.761 841.756,342.716 840.353,342.469L842.039,338.681C839.918,334.521 838.086,332.476 836.542,332.546L838.359,329.099C834.241,318.377 830.299,307.261 826.532,295.749C822.765,284.238 822.147,273.939 824.678,264.852C834.236,272.699 842.126,284.721 848.347,300.918C858.417,327.137 863.586,340.875 863.853,342.13ZM720.527,299.355C720.379,298.976 720.377,298.977 720.523,299.357L720.527,299.355ZM745.758,251.576C740.984,255.504 735.289,258.739 728.673,261.279C716.583,265.923 710.081,268.42 709.168,268.771C708.573,265.858 707.128,262.094 704.831,257.478C702.15,251.179 700.546,247.344 700.021,245.975C697.305,238.903 697.018,233.385 699.16,229.421C700.354,228.439 701.749,227.642 703.346,227.028C705.627,226.152 709.518,225.378 715.019,224.705C720.519,224.032 724.752,223.126 727.718,221.987C729.543,221.286 731.281,220.357 732.93,219.2C735.894,221.464 738.121,224.536 739.611,228.414C740.487,230.695 741.411,234.464 742.382,239.719C743.353,244.974 744.478,248.926 745.758,251.576Z"/>
    </g>
    <g id="Light" transform="matrix(1,0,0,1,797.114,264.229)">
        <g id="Right-of-Prism" serif:id="Right of Prism" transform="matrix(1.73358,2.10241e-16,5.64297e-17,0.234911,-1537.61,-210.219)">
            <path d="M2330.72,2664.74L1470.42,2665.32L1474.88,2721.97L2330.72,2722.08L2330.72,2664.74Z"/>
        </g>
        <g id="Left-of-Prism" serif:id="Left of Prism" transform="matrix(1.67439,-0.195513,0.0393561,0.337049,-1117.73,-154.067)">
            <path d="M853.168,2862.01L115.129,2862.07L115.129,2918.98L844.641,2918.55L853.168,2862.01Z"/>
        </g>
    </g>
</svg>
